<svg width="36" height="36" viewBox="0 0 36 36" fill="none" xmlns="http://www.w3.org/2000/svg">
<path d="M30.8398 4.47159H16.1846C14.9069 4.47159 13.7055 5.07959 12.9488 6.1091L10.6052 9.29763C10.1554 9.90956 9.34109 10.1273 8.64599 9.82139C7.7727 9.43713 7.4184 8.38554 7.8812 7.55114L8.88526 5.74088C10.6097 2.63187 13.885 0.703125 17.4402 0.703125H30.7488L30.8398 4.47159Z" fill="#FFD0C7"/>
<path d="M8.06348 18.0088H25.424V32.4842H8.06348V18.0088Z" fill="#FFDA8F"/>
<path d="M19.4474 22.1656L16.7871 20.9829L14.0405 22.1656V18.0088H19.4474V22.1656Z" fill="white"/>
<path d="M0.703125 26.3828H5.25115V35.2968H0.703125V26.3828Z" fill="white"/>
<path d="M0.703125 26.3828H5.25115V35.2968H0.703125V26.3828Z" fill="white"/>
<path d="M0.703125 26.3828H5.25115V35.2968H0.703125V26.3828Z" fill="white"/>
<path d="M5.36151 29.1311C6.08545 27.0387 8.07311 25.5361 10.4117 25.5361C12.4115 25.5361 14.1547 26.6349 15.0705 28.2617V28.2618H18.771C19.673 28.2618 20.4042 28.993 20.4042 29.895C20.4042 30.797 19.673 31.5282 18.771 31.5282H14.3874H17.2696L16.575 31.5286H19.8152C21.0929 31.5286 22.2944 30.9206 23.0511 29.8911L25.3947 26.7025C25.8445 26.0906 26.6587 25.8729 27.3539 26.1788C28.2271 26.563 28.5814 27.6146 28.1186 28.449L27.1146 30.2593C25.3901 33.3683 22.1147 35.2971 18.5595 35.2971H5.25098L5.36151 29.1311Z" fill="#F3C9A6"/>
<path d="M0.703125 26.3828H5.25115V35.2968H0.703125V26.3828Z" fill="#66E0F7"/>
<path d="M0.703125 26.3828H5.25115V35.2968H0.703125V26.3828Z" fill="#66E0F7"/>
<path d="M0.703125 26.3828H5.25115V35.2968H0.703125V26.3828Z" fill="#66E0F7"/>
<path d="M0.703125 26.3828H5.25115V35.2968H0.703125V26.3828Z" fill="#66E0F7"/>
<path d="M4.5 4.40771H25.6045V15.1873H4.5V4.40771Z" fill="white"/>
<path d="M8.01837 4.40771H22.0861C22.0861 6.35087 23.6613 7.92608 25.6044 7.92608V11.6688C23.6613 11.6688 22.0861 13.244 22.0861 15.1872H8.01837C8.01837 13.244 6.44316 11.6688 4.5 11.6688V7.92608C6.44316 7.92615 8.01837 6.35087 8.01837 4.40771Z" fill="#A0E5A5"/>
<path d="M31.8018 4.301C31.694 6.51246 30.2079 8.51243 27.9633 9.16866C26.0438 9.72982 24.0623 9.16437 22.7268 7.85986V7.85979L19.175 8.89817C18.3092 9.15129 17.4022 8.65461 17.1491 7.78885C16.8959 6.92309 17.3926 6.01606 18.2584 5.76293L24.4424 3.95499L27.0746 2.34912L31.8018 4.301Z" fill="#FFD0C7"/>
<path d="M35.2969 9.61719H30.7489V0.70318H35.2969V9.61719Z" fill="white"/>
<path d="M35.2969 9.61719H30.7489V0.70318H35.2969V9.61719Z" fill="white"/>
<path d="M35.2969 9.61719H30.7489V0.70318H35.2969V9.61719Z" fill="white"/>
<path d="M35.2969 9.61719H30.7489V0.70318H35.2969V9.61719Z" fill="#66E0F7"/>
<path d="M35.2969 9.61719H30.7489V0.70318H35.2969V9.61719Z" fill="#66E0F7"/>
<path d="M35.2969 9.61719H30.7489V0.70318H35.2969V9.61719Z" fill="#66E0F7"/>
<path d="M35.2969 9.61719H30.7489V0.70318H35.2969V9.61719Z" fill="#66E0F7"/>
<path d="M15.0522 12.0018C16.2694 12.0018 17.2562 11.015 17.2562 9.79777C17.2562 8.58052 16.2694 7.59375 15.0522 7.59375C13.8349 7.59375 12.8481 8.58052 12.8481 9.79777C12.8481 11.015 13.8349 12.0018 15.0522 12.0018Z" fill="white"/>
<path d="M27.6372 25.5349C27.1443 25.3181 26.6152 25.2824 26.1273 25.4064V18.0088C26.1273 17.6205 25.8124 17.3057 25.4242 17.3057H8.06365C7.67531 17.3057 7.36052 17.6205 7.36052 18.0088V25.6395C6.84267 25.9305 6.36778 26.292 5.95427 26.7128V26.3827C5.95427 25.9945 5.63948 25.6796 5.25115 25.6796H0.703125C0.314789 25.6796 0 25.9945 0 26.3827V35.2967C0 35.685 0.314789 35.9999 0.703125 35.9999H18.5597C22.3684 35.9999 25.8822 33.9308 27.7296 30.6001L28.7336 28.7898C29.0498 28.2197 29.1119 27.5383 28.9038 26.9204C28.6956 26.3026 28.234 25.7975 27.6372 25.5349ZM18.7442 18.7119V21.0835L17.0726 20.3404C16.8934 20.2606 16.689 20.2595 16.5088 20.337L14.7435 21.0973V18.7119H18.7442ZM8.76677 18.7119H13.3373V22.1656C13.3373 22.4021 13.4563 22.6229 13.6538 22.753C13.7704 22.8297 13.905 22.8687 14.0404 22.8687C14.1347 22.8687 14.2294 22.8497 14.3185 22.8114L16.7824 21.7503L19.1616 22.8081C19.3792 22.9049 19.6309 22.8848 19.8304 22.7552C20.03 22.6255 20.1504 22.4037 20.1504 22.1656V18.7119H24.721V26.4317L22.4846 29.4743C22.1046 29.9913 21.5838 30.3801 20.9967 30.6049C21.0684 30.3808 21.1075 30.1422 21.1075 29.8946C21.1075 28.6064 20.0594 27.5583 18.7711 27.5583L15.465 27.5582C14.3518 25.8669 12.4523 24.8325 10.4118 24.8325C9.84916 24.8325 9.2963 24.9112 8.7667 25.0581V18.7119H8.76677ZM1.40625 27.0859H4.54802V34.5936H1.40625V27.0859ZM27.5039 28.1077L26.4998 29.918C24.9001 32.802 21.8576 34.5936 18.5597 34.5936H5.95427V29.2562C6.62323 27.4744 8.43898 26.2389 10.4119 26.2389C12.0855 26.2389 13.6359 27.146 14.4579 28.6064C14.5825 28.8276 14.8167 28.9646 15.0706 28.9646H18.7711C19.284 28.9646 19.7012 29.3818 19.7012 29.8947C19.7012 30.4076 19.284 30.8249 18.7711 30.8249H14.3875C13.9991 30.8249 13.6844 31.1397 13.6844 31.528C13.6844 31.9162 13.9991 32.2311 14.3875 32.2311L19.8153 32.2315C21.3106 32.2315 22.732 31.5122 23.6176 30.3073L25.9613 27.1187C26.2178 26.7696 26.6738 26.6474 27.0707 26.8221C27.3098 26.9274 27.4875 27.1217 27.5709 27.3694C27.6545 27.6169 27.6306 27.8792 27.5039 28.1077Z" fill="black"/>
<path d="M35.2969 0H17.4403C14.3351 0 11.4386 1.34627 9.44198 3.70484H4.5C4.11166 3.70484 3.79688 4.0197 3.79688 4.40796V15.1875C3.79688 15.5758 4.11166 15.8906 4.5 15.8906H11.6719C12.0602 15.8906 12.375 15.5758 12.375 15.1875C12.375 14.7992 12.0602 14.4844 11.6719 14.4844H8.69548C8.40424 12.7015 6.98899 11.2919 5.20312 11.01V8.58558C6.98899 8.30363 8.40424 6.894 8.69548 5.11116H17.9886C17.4223 5.2965 16.9549 5.68336 16.6674 6.20838C16.495 6.52324 16.3995 6.86587 16.3825 7.21413C15.9835 7.00791 15.5315 6.89062 15.0523 6.89062C13.4493 6.89062 12.1451 8.19478 12.1451 9.79776C12.1451 11.4007 13.4492 12.7049 15.0523 12.7049C16.6553 12.7049 17.9594 11.4007 17.9594 9.79776C17.9594 9.70903 17.9548 9.62142 17.947 9.53473C18.3915 9.69068 18.8867 9.71487 19.3723 9.57298L22.5456 8.64527C23.2379 9.23344 24.045 9.65011 24.9015 9.87919V11.0099C23.1156 11.2918 21.7003 12.7015 21.4091 14.4843H18C17.6117 14.4843 17.2969 14.7992 17.2969 15.1874C17.2969 15.5757 17.6117 15.8906 18 15.8906H25.6045C25.9928 15.8906 26.3076 15.5757 26.3076 15.1874V10.082C26.3612 10.0834 26.4148 10.0855 26.4685 10.0855C27.0338 10.0855 27.6036 10.0061 28.1604 9.84333C28.8473 9.64252 29.4823 9.32801 30.0457 8.91373V9.61706C30.0457 10.0053 30.3605 10.3202 30.7488 10.3202H35.2969C35.6851 10.3202 36 10.0053 36 9.61706V0.703125C36 0.314859 35.6851 0 35.2969 0V0ZM22.8435 14.4844C23.0955 13.4786 23.8926 12.6873 24.9014 12.4432V14.4844H22.8435ZM7.26103 14.4844H5.20312V12.4432C6.2119 12.6873 7.0091 13.4786 7.26103 14.4844ZM5.20312 7.15226V5.11109H7.26103C7.0091 6.11684 6.2119 6.90813 5.20312 7.15226ZM15.0523 11.2986C14.2247 11.2986 13.5514 10.6253 13.5514 9.7977C13.5514 8.97005 14.2247 8.29688 15.0523 8.29688C15.8799 8.29688 16.5532 8.97012 16.5532 9.79776C16.5532 10.6254 15.8799 11.2986 15.0523 11.2986ZM27.7659 8.49361C26.1596 8.96323 24.4168 8.52764 23.2182 7.35673C23.0364 7.17933 22.7732 7.11366 22.5295 7.18481L18.9777 8.22326C18.485 8.3674 17.9678 8.08376 17.8239 7.5915C17.7542 7.35307 17.7815 7.10177 17.9009 6.88387C18.0202 6.66598 18.2172 6.50756 18.4557 6.43788L24.6397 4.62994C25.0125 4.52095 25.2263 4.13044 25.1173 3.75778C25.0083 3.38498 24.6177 3.17138 24.2452 3.28015L22.7876 3.70631C22.779 3.70603 22.7706 3.70498 22.7618 3.70498H11.3988C13.0481 2.22961 15.1804 1.40625 17.4403 1.40625H30.0457V6.9892C29.4536 7.71054 28.6683 8.22987 27.7659 8.49361ZM34.5938 8.91401H31.452V1.40625H34.5938V8.91401Z" fill="black"/>
<path d="M14.8359 15.8853C15.2243 15.8853 15.5391 15.5705 15.5391 15.1821C15.5391 14.7938 15.2243 14.479 14.8359 14.479C14.4476 14.479 14.1328 14.7938 14.1328 15.1821C14.1328 15.5705 14.4476 15.8853 14.8359 15.8853Z" fill="black"/>
</svg>
