<svg width="15" height="16" viewBox="0 0 15 16" fill="none" xmlns="http://www.w3.org/2000/svg">
<path d="M6.87614 10.5786H5.81829C5.60787 10.5786 5.40607 10.6622 5.25728 10.811C5.10849 10.9598 5.0249 11.1616 5.0249 11.372C5.0249 11.5824 5.10849 11.7842 5.25728 11.933C5.40607 12.0818 5.60787 12.1654 5.81829 12.1654H6.87614C7.08656 12.1654 7.28836 12.0818 7.43715 11.933C7.58594 11.7842 7.66953 11.5824 7.66953 11.372C7.66953 11.1616 7.58594 10.9598 7.43715 10.811C7.28836 10.6622 7.08656 10.5786 6.87614 10.5786ZM6.87614 11.6365H5.81829C5.74815 11.6365 5.68088 11.6086 5.63129 11.559C5.58169 11.5094 5.55383 11.4421 5.55383 11.372C5.55383 11.3019 5.58169 11.2346 5.63129 11.185C5.68088 11.1354 5.74815 11.1075 5.81829 11.1075H6.87614C6.94628 11.1075 7.01355 11.1354 7.06315 11.185C7.11274 11.2346 7.1406 11.3019 7.1406 11.372C7.1406 11.4421 7.11274 11.5094 7.06315 11.559C7.01355 11.6086 6.94628 11.6365 6.87614 11.6365Z" fill="black"/>
<path d="M13.7521 11.6364C13.5031 11.6354 13.262 11.7236 13.0724 11.885C12.9781 11.7286 12.8451 11.5993 12.6862 11.5094C12.5273 11.4195 12.3479 11.3722 12.1653 11.3719C11.9163 11.3709 11.6752 11.4591 11.4856 11.6205C11.3428 11.3825 11.1119 11.2105 10.843 11.1418V1.85124C10.8424 1.36043 10.6472 0.889888 10.3001 0.542834C9.95309 0.195781 9.48254 0.000559963 8.99174 0H3.70248C3.21167 0.000559963 2.74113 0.195781 2.39407 0.542834C2.04702 0.889888 1.8518 1.36043 1.85124 1.85124V6.69091C1.68312 6.76954 1.54756 6.90417 1.46777 7.07174L0.267107 9.67669C0.0919626 10.0584 0.00087117 10.4733 0 10.8932V15.8678H0.528926V10.8932C0.529817 10.5498 0.604684 10.2107 0.74843 9.89884L1.85124 7.50545V11.3719C1.8516 11.5876 1.8901 11.8016 1.96496 12.004L1.70314 12.4562L2.16066 12.7207L3.74744 9.97289C3.78182 9.91246 3.82778 9.85939 3.88269 9.81673C3.9376 9.77408 4.00038 9.74267 4.06744 9.7243C4.20325 9.68955 4.34722 9.7085 4.46942 9.77719C4.5909 9.84788 4.67943 9.96382 4.71561 10.0996C4.75179 10.2354 4.73269 10.3801 4.66248 10.5018L3.4724 12.562C3.4494 12.6033 3.43756 12.6499 3.43802 12.6972C3.43848 12.7445 3.45124 12.7909 3.47504 12.8317L4.04099 13.7732C4.16503 13.9783 4.23086 14.2132 4.2314 14.4529V15.8651H4.76033V14.4529C4.75972 14.1175 4.66833 13.7885 4.49587 13.5008L4.32926 13.2231H5.96099C5.88903 13.4946 5.92704 13.7835 6.06678 14.0271L7.20661 16L7.66413 15.7355L6.5243 13.7626C6.47128 13.672 6.44644 13.5676 6.45295 13.4628C6.45946 13.358 6.49701 13.2575 6.56083 13.1741C6.62464 13.0908 6.71184 13.0283 6.8113 12.9946C6.91076 12.9609 7.018 12.9576 7.11934 12.9851C7.18675 13.0027 7.24988 13.0338 7.30489 13.0765C7.3599 13.1193 7.40565 13.1727 7.43934 13.2337L7.96826 14.1488C7.99799 14.199 8.04316 14.2382 8.09702 14.2606C8.15089 14.283 8.21055 14.2874 8.26711 14.2731C8.32346 14.2579 8.37321 14.2245 8.40861 14.1781C8.44401 14.1317 8.46307 14.0749 8.46281 14.0165V8.99174C8.46281 8.85146 8.51853 8.71692 8.61773 8.61773C8.71692 8.51853 8.85146 8.46281 8.99174 8.46281C9.13202 8.46281 9.26655 8.51853 9.36574 8.61773C9.46494 8.71692 9.52066 8.85146 9.52066 8.99174V13.2231C9.52066 13.2933 9.54852 13.3605 9.59812 13.4101C9.64772 13.4597 9.71498 13.4876 9.78512 13.4876C9.85526 13.4876 9.92253 13.4597 9.97213 13.4101C10.0217 13.3605 10.0496 13.2933 10.0496 13.2231V12.1653C10.0496 12.025 10.1053 11.8905 10.2045 11.7913C10.3037 11.6921 10.4382 11.6364 10.5785 11.6364C10.7188 11.6364 10.8533 11.6921 10.9525 11.7913C11.0517 11.8905 11.1074 12.025 11.1074 12.1653V13.2231C11.1074 13.2933 11.1353 13.3605 11.1849 13.4101C11.2345 13.4597 11.3018 13.4876 11.3719 13.4876C11.442 13.4876 11.5093 13.4597 11.5589 13.4101C11.6085 13.3605 11.6364 13.2933 11.6364 13.2231V12.4298C11.6364 12.2895 11.6921 12.1549 11.7913 12.0557C11.8905 11.9566 12.025 11.9008 12.1653 11.9008C12.3056 11.9008 12.4401 11.9566 12.5393 12.0557C12.6385 12.1549 12.6942 12.2895 12.6942 12.4298V13.2231C12.6942 13.2933 12.7221 13.3605 12.7717 13.4101C12.8213 13.4597 12.8885 13.4876 12.9587 13.4876C13.0288 13.4876 13.0961 13.4597 13.1457 13.4101C13.1953 13.3605 13.2231 13.2933 13.2231 13.2231V12.6942C13.2231 12.5539 13.2789 12.4194 13.3781 12.3202C13.4773 12.221 13.6118 12.1653 13.7521 12.1653C13.8923 12.1653 14.0269 12.221 14.1261 12.3202C14.2253 12.4194 14.281 12.5539 14.281 12.6942V15.8678H14.8099V12.6942C14.8099 12.4137 14.6985 12.1446 14.5001 11.9462C14.3017 11.7478 14.0326 11.6364 13.7521 11.6364ZM10.314 11.1418C10.2214 11.1657 10.1324 11.2022 10.0496 11.2502V8.99174C10.0496 8.71118 9.93813 8.44211 9.73975 8.24372C9.54136 8.04534 9.27229 7.93388 8.99174 7.93388C8.71118 7.93388 8.44211 8.04534 8.24372 8.24372C8.04534 8.44211 7.93388 8.71118 7.93388 8.99174V12.6942H7.66678C7.5477 12.5922 7.40781 12.5172 7.25686 12.4747C6.98539 12.4029 6.69655 12.4409 6.45289 12.5805C6.39771 12.6139 6.34551 12.6519 6.29686 12.6942H4.0119L4.00926 12.6916L5.12264 10.7663C5.26292 10.5232 5.30091 10.2344 5.22825 9.96339C5.1556 9.69235 4.97824 9.46127 4.73521 9.32099C4.49217 9.18071 4.20337 9.14272 3.93232 9.21538C3.66128 9.28804 3.4302 9.46539 3.28992 9.70843L2.38017 11.282V1.85124C2.38017 1.50054 2.51948 1.1642 2.76746 0.916222C3.01544 0.66824 3.35178 0.528926 3.70248 0.528926H8.99174C9.34243 0.528926 9.67877 0.66824 9.92675 0.916222C10.1747 1.1642 10.314 1.50054 10.314 1.85124V11.1418Z" fill="black"/>
<path d="M6.34702 2.11572C5.82396 2.11572 5.31265 2.27083 4.87775 2.56142C4.44284 2.85202 4.10387 3.26505 3.9037 3.7483C3.70354 4.23154 3.65117 4.76328 3.75321 5.27629C3.85525 5.7893 4.10713 6.26053 4.47699 6.63038C4.84685 7.00024 5.31807 7.25212 5.83108 7.35416C6.34409 7.45621 6.87583 7.40383 7.35908 7.20367C7.84232 7.0035 8.25535 6.66453 8.54595 6.22963C8.83655 5.79472 8.99165 5.28341 8.99165 4.76035C8.99088 4.05919 8.712 3.38696 8.21621 2.89117C7.72041 2.39537 7.04818 2.11649 6.34702 2.11572ZM6.34702 6.87605C5.92858 6.87605 5.51953 6.75197 5.1716 6.51949C4.82368 6.28702 4.5525 5.95659 4.39237 5.57C4.23224 5.1834 4.19034 4.758 4.27197 4.3476C4.35361 3.93719 4.55511 3.56021 4.85099 3.26432C5.14688 2.96844 5.52386 2.76694 5.93427 2.6853C6.34468 2.60367 6.77007 2.64556 7.15667 2.8057C7.54326 2.96583 7.87369 3.237 8.10616 3.58493C8.33864 3.93286 8.46272 4.3419 8.46272 4.76035C8.46209 5.32128 8.23899 5.85905 7.84235 6.25568C7.44572 6.65232 6.90795 6.87542 6.34702 6.87605Z" fill="black"/>
<path d="M7.40501 4.32424V4.57846H6.16005V5.55298C6.16005 5.66362 6.17445 5.73894 6.20323 5.77896C6.23442 5.81898 6.29439 5.83899 6.38314 5.83899C6.4551 5.83899 6.52706 5.82369 6.59903 5.79308C6.67339 5.76248 6.73935 5.72129 6.79692 5.6695C6.85689 5.61772 6.90487 5.55887 6.94085 5.49296C6.97683 5.4247 6.99482 5.35526 6.99482 5.28464C6.99482 5.22814 6.97803 5.1846 6.94445 5.154C6.91326 5.12339 6.86169 5.10809 6.78973 5.10809C6.72496 5.10809 6.66499 5.11516 6.60982 5.12928L6.57384 4.88918C6.61462 4.87741 6.6578 4.86917 6.70337 4.86446C6.75135 4.8574 6.79932 4.85387 6.8473 4.85387C6.97443 4.85387 7.07758 4.88565 7.15674 4.9492C7.2383 5.01041 7.27907 5.11045 7.27907 5.24933C7.27907 5.35761 7.25269 5.46236 7.19992 5.56358C7.14954 5.66244 7.08118 5.75189 6.99482 5.83192C6.90847 5.9096 6.81132 5.9708 6.70337 6.01553C6.59543 6.06025 6.48509 6.08262 6.37234 6.08262C6.28359 6.08262 6.21043 6.0732 6.15286 6.05437C6.09529 6.03318 6.04731 6.00494 6.00893 5.96963C5.98495 5.94609 5.96336 5.9202 5.94417 5.89195C5.92498 5.86135 5.90938 5.82133 5.89739 5.7719C5.8878 5.72011 5.883 5.65185 5.883 5.56711V4.57846H5.53398V4.32424H7.40501ZM5.71389 3.43799C5.78345 3.43799 5.84342 3.4474 5.89379 3.46624C5.94657 3.48507 5.99094 3.51331 6.02692 3.55098C6.0701 3.5957 6.10248 3.6569 6.12407 3.73458C6.14806 3.80991 6.16005 3.91701 6.16005 4.05589V4.35249H5.883V4.07002C5.883 3.98763 5.877 3.91936 5.86501 3.86522C5.85541 3.80873 5.83262 3.76636 5.79664 3.73811C5.76066 3.70751 5.70669 3.69221 5.63473 3.69221C5.58915 3.69221 5.54357 3.69927 5.498 3.7134C5.45482 3.72517 5.41764 3.73694 5.38646 3.74871L5.28931 3.52979C5.36127 3.49919 5.43083 3.47683 5.498 3.4627C5.56756 3.44623 5.63952 3.43799 5.71389 3.43799Z" fill="black" stroke="black" stroke-width="0.2"/>
</svg>
